<svg height="512pt" viewBox="0 0 512 512" width="512pt" xmlns="http://www.w3.org/2000/svg"><path d="m426.875.308594-426.875 426.875 84.816406 84.816406 426.875-426.875zm42.40625 84.816406-85.316406 85.320312-42.410156-42.410156 85.316406-85.316406zm-426.871094 342.058594 277.941406-277.945313 42.410157 42.410157-277.945313 277.941406zm0 0"/><path d="m245.636719 32.113281 42.40625 42.40625-21.203125 21.207031-42.40625-42.410156zm0 0"/><path d="m468.285156 297.175781-42.410156-42.410156 21.203125-21.203125 42.410156 42.410156zm0 0"/><path d="m306.777344 0h29.988281v43.980469h-29.988281zm0 0"/><path d="m470.707031 175.925781h40.984375v29.988281h-40.984375zm0 0"/><path d="m193.824219 113.953125h40.980469v29.988281h-40.980469zm0 0"/><path d="m369.75 275.964844h29.988281v40.902344h-29.988281zm0 0"/></svg>